<!DOCTYPE svg PUBLIC "-//W3C//DTD SVG 20010904//EN" "http://www.w3.org/TR/2001/REC-SVG-20010904/DTD/svg10.dtd">
<svg version="1.0" xmlns="http://www.w3.org/2000/svg" width="200px" height="200px" viewBox="0 0 2000 2000" preserveAspectRatio="xMidYMid meet">
<g id="layer101" fill="#1f90e7" stroke="none">
 <path d="M1020 1540 c0 -82 -2 -150 -5 -150 -3 0 -27 14 -55 31 l-50 31 -92 -57 c-293 -182 -519 -410 -578 -581 -24 -70 -26 -183 -5 -245 23 -64 77 -139 132 -180 73 -55 134 -74 233 -74 113 1 183 29 257 100 l54 52 53 -51 c143 -140 380 -138 525 3 87 85 134 225 112 333 -10 45 -24 80 -79 191 -2 4 31 7 73 7 90 0 138 19 166 64 16 26 19 52 19 164 0 101 -4 140 -16 163 -17 35 -82 68 -131 69 -27 0 -32 4 -38 30 -3 16 -15 41 -27 55 -36 46 -76 55 -242 55 l-152 0 -69 70 c-38 39 -73 70 -77 70 -5 0 -8 -67 -8 -150z"/>
 </g>
<g id="layer102" fill="#f98aaf" stroke="none">
 <path d="M815 1393 c-293 -183 -517 -408 -575 -579 -24 -70 -26 -183 -5 -245 23 -64 77 -139 132 -180 73 -55 134 -74 233 -74 113 1 183 29 257 100 l54 52 53 -51 c179 -175 489 -121 599 104 60 122 57 228 -9 360 l-35 70 -102 0 c-119 0 -177 20 -205 70 -14 24 -24 30 -51 30 -19 0 -49 10 -67 22 -56 38 -64 63 -64 191 l0 116 -59 35 c-32 20 -60 36 -62 36 -2 0 -44 -26 -94 -57z"/>
 <path d="M1170 1325 c-25 -30 15 -70 45 -45 19 16 19 25 -1 44 -19 20 -28 20 -44 1z"/>
 <path d="M1319 1324 c-9 -11 -10 -20 -2 -32 14 -22 43 -22 57 1 9 15 7 21 -8 33 -25 18 -31 18 -47 -2z"/>
 <path d="M1470 1325 c-25 -30 15 -70 45 -45 19 16 19 25 -1 44 -19 20 -28 20 -44 1z"/>
 </g>
<g id="layer103" fill="#fdfeff" stroke="none">
 <path d="M1170 1325 c-25 -30 15 -70 45 -45 19 16 19 25 -1 44 -19 20 -28 20 -44 1z"/>
 <path d="M1319 1324 c-9 -11 -10 -20 -2 -32 14 -22 43 -22 57 1 9 15 7 21 -8 33 -25 18 -31 18 -47 -2z"/>
 <path d="M1470 1325 c-25 -30 15 -70 45 -45 19 16 19 25 -1 44 -19 20 -28 20 -44 1z"/>
 </g>

</svg>